<svg xmlns="http://www.w3.org/2000/svg" width="64" height="64">
    <path fill="#6DC02D" fill-rule="evenodd" d="M32 63.999c-17.674 0-32-14.327-32-32 0-17.673 14.326-32 32-32 17.672 0 32 14.327 32 32 0 17.673-14.328 32-32 32zM52.154 28.21c-.49-8.519-9.329-15.307-20.16-15.307-11.146 0-20.182 7.187-20.182 16.053 0 8.149 7.633 14.879 17.523 15.914.605.063 1.04.609.973 1.213l-.421 3.79a1.1 1.1 0 0 0 1.574 1.11c8.355-4.032 13.352-8.181 16.335-11.775.543-.654 2.313-3.134 2.675-3.785a13.542 13.542 0 0 0 1.543-4.424c.092-.488.138-.898.159-1.221.035-.532-.005-1.321-.019-1.568zm-7.773 3.998a1.032 1.032 0 1 1 0 2.064h-4.129c-.57 0-1.032-.462-1.032-1.033v-7.793c0-.57.462-1.032 1.032-1.032h4.129a1.032 1.032 0 1 1 0 2.063h-3.097v1.833h3.097a1.032 1.032 0 1 1 0 2.065h-3.097v1.833h3.097zm-7.751 2.064a1.02 1.02 0 0 1-.698-.282c-.062-.058-4.248-5.483-4.248-5.483v4.732a1.032 1.032 0 1 1-2.064 0v-7.751c0-.562.43-1.053.992-1.073.321-.013.612.123.809.344.063.071 4.186 5.448 4.186 5.448v-4.761a1.032 1.032 0 1 1 2.065 0v7.751c0 .573-.469 1.08-1.042 1.075zm-9.365 0h-.452a.806.806 0 0 1-.806-.807V25.22c0-.446.361-.807.806-.807h.452c.445 0 .806.361.806.807v8.245a.806.806 0 0 1-.806.807zm-3.272 0h-4.129c-.57 0-1.032-.462-1.032-1.033v-7.793a1.032 1.032 0 1 1 2.064 0v6.762h3.097a1.032 1.032 0 1 1 0 2.064z"/>
</svg>
