<svg xmlns="http://www.w3.org/2000/svg" width="60" height="38">
    <path fill="#999" fill-rule="evenodd" d="M59.901 22.41l-3.295 9.963a1.996 1.996 0 0 1-1.563 1.344c-.255-3.969-3.486-7.137-7.473-7.276l1.65-6.615h9.221c.472.106.895.379 1.184.781.375.521.478 1.191.276 1.803zM51.715 9.813h2.996a2 2 0 0 1 1.997 1.996l.016 4.813h-6.706l1.697-6.809zm-7.608 17.313a7.797 7.797 0 0 0-4.556 6.619H27.04c-.245-4.073-3.625-7.31-7.747-7.31-4.12 0-7.5 3.237-7.745 7.31h-1.314a1.995 1.995 0 0 1-1.558-.75 2.007 2.007 0 0 1-.392-1.687l1.657-7.476H1.997A2 2 0 0 1 0 21.83a2 2 0 0 1 1.997-2.004h8.831l.943-4.255h-6.48a2 2 0 0 1-1.996-2.003 2 2 0 0 1 1.996-2.003h7.367l.943-4.256h-3.367a2 2 0 0 1-1.998-2.002 2 2 0 0 1 1.998-2.002h4.255l.385-1.737A1.997 1.997 0 0 1 16.823 0h31.299c.606 0 1.179.276 1.558.75a2.01 2.01 0 0 1 .391 1.687l-5.964 24.689zM19.293 30.44a3.78 3.78 0 0 1 3.77 3.78 3.779 3.779 0 0 1-3.77 3.78 3.778 3.778 0 0 1-3.768-3.78 3.779 3.779 0 0 1 3.768-3.78zm28.005 0a3.778 3.778 0 0 1 3.769 3.78c0 2.085-1.69 3.78-3.769 3.78a3.778 3.778 0 0 1-3.768-3.78c0-2.084 1.69-3.78 3.768-3.78z"/>
</svg>
