<svg xmlns="http://www.w3.org/2000/svg" width="56" height="43">
    <path fill="#999" fill-rule="evenodd" d="M50 36.667c0 1.11-.309 2.14-.803 3.046L33.41 21.814 49.026 7.969c.608.977.974 2.124.974 3.364v25.334zM25 25.064L46.728 5.798C45.837 5.303 44.833 5 43.749 5H6.25c-1.085 0-2.089.303-2.977.798L25 25.064zm6.058-1.166l-5.03 4.463a1.552 1.552 0 0 1-2.057-.001l-5.03-4.462L2.954 42.026A6.116 6.116 0 0 0 6.25 43h37.499a6.116 6.116 0 0 0 3.296-.974L31.058 23.898zM.974 7.969A6.343 6.343 0 0 0 0 11.333v25.334c0 1.11.307 2.14.802 3.046L16.588 21.81.974 7.969z"/>
    <path fill="#D70146" fill-rule="evenodd" d="M55.614 8.154c.353-.362.478-.889.325-1.381a1.292 1.292 0 0 0-1.041-.916l-4.352-.661a.574.574 0 0 1-.429-.326L48.171.749a1.28 1.28 0 0 0-1.157-.751 1.28 1.28 0 0 0-1.157.751L43.911 4.87a.573.573 0 0 1-.429.326l-4.353.661c-.491.073-.89.424-1.042.916a1.384 1.384 0 0 0 .326 1.381l3.151 3.207a.616.616 0 0 1 .163.527l-.743 4.529c-.065.399.035.789.281 1.093a1.263 1.263 0 0 0 1.591.327l3.892-2.137a.556.556 0 0 1 .531 0l3.894 2.137c.189.105.391.158.6.158.38 0 .742-.176.99-.485.246-.304.346-.694.281-1.093l-.744-4.529a.614.614 0 0 1 .164-.527l3.15-3.207z"/>
</svg>
