<svg xmlns="http://www.w3.org/2000/svg" width="56" height="56">
    <path fill="#D70146" fill-rule="evenodd" d="M28 0c15.464 0 28 12.536 28 28S43.464 56 28 56 0 43.464 0 28 12.536 0 28 0z"/>
    <path fill="#FFF" fill-rule="evenodd" d="M39.997 30.153s.066-1.308-.372-2.019c-.438-.711-.907-1.206-1.172-1.338a12.724 12.724 0 0 0-.766-.341c.088-.029.53.029.518-.081-.014-.125-.002-1.558-.041-2.23-.039-.671.019-1.007-.283-1.066a79.306 79.306 0 0 0-1.039-.188s-.01-.257-.02-.444c-.01-.188-.02-2.222-.02-2.222s.37.079.37-.168-.107-1.581.048-2.133c.157-.553.322-1.087.263-1.185-.058-.099-.116-.228-.515-.277-.399-.049-2.062-.158-2.558-.039-.496.118-.496.128-.593.178-.097.049-.302.039-.545.009-.243-.029-1.75-.316-2.509-.108-.759.207-1.303.513-1.4.622-.098.108.067.296.204.484.136.187.242.335.409.207.165-.128.981-.572 1.74-.464.758.109 1.478.188 1.741.207.263.02.564.099.602.543.04.445-.018 2.045.069 2.064.088.02.301.06.301.06s-.048 2.103-.078 2.212a1.978 1.978 0 0 0-.038.405c0 .098-.039.118-.137.118-.097 0-1.059.03-1.079.198a53.83 53.83 0 0 0-.195 2.232c-.038.74-.106.977.049.977.156 0 .321.04.321.04l-.344.153c-.112.05-.275.116-.423.226-.391.292-1.57 1.238-1.58 2.788-.009 1.551-.139 11.144-.134 11.764.002.525-.041 1.19.251 2.138s.258 1.038 1.121 1.24c.962.224 3.542.381 5.262.217 1.647-.157 1.803-.433 1.978-.917.175-.484.409-1.098.419-2.293.009-1.194.175-11.569.175-11.569zM18.432 40.588s-.404-.18-.418-.611c-.014-.432-.064-3.937-.064-3.937s-.087-4.571-.152-5.83c-.064-1.26-.211-4.58-.211-4.58s-.192-3.572-.303-5.003c-.109-1.43-.357-4.03-.577-5.578-.22-1.547-.459-2.447-.615-2.807 0 0-.092-.117-.092-.369s.027-.459.027-.459-.045-.081.065-.171c.11-.09.192-.252.679-.243.486.009 6.119.072 6.119.072s3.432.009 4.258-.009c.826-.018.844.009 1.074.216.229.207.229.441.22.648-.009.207-.119.549-.294.972-.174.423-.587 2.933-.807 4.759-.22 1.827-.386 3.86-.514 5.327-.129 1.467-.395 5.848-.449 7.162-.056 1.314-.037 1.322-.111 2.618-.074 1.296-.238 6.811-.238 6.811s0 .6-.104.756c-.105.156-.182.252-.326.313l-.029 2.482-.009 1.261s.052.155-.266.311-1.399.271-3.12.298c-1.72.027-2.775-.144-3.203-.247-.426-.104-.591-.248-.591-.396 0-.149.051-3.766.051-3.766z"/>
</svg>
