<svg xmlns="http://www.w3.org/2000/svg" width="32" height="32">
    <path fill="none" fill-rule="evenodd" d="M0 0h32v32H0V0z"/>
    <path fill="#999" fill-rule="evenodd" d="M27.518 10.07c-3.847 3.848-7.694 7.7-11.541 11.558a1.6 1.6 0 0 1-.818.441c-1.37.284-2.745.578-4.116.867l-.861.182a1.522 1.522 0 0 1-.25.024c-.293 0-.572-.112-.773-.313-.26-.26-.362-.643-.284-1.025l.166-.784a715.1 715.1 0 0 1 .906-4.25c.059-.269.21-.544.411-.75.852-.867 1.713-1.725 2.57-2.583l2.325-2.328c2.212-2.216 4.429-4.436 6.632-6.651.347-.353.749-.5 1.189-.446l.083.01c.304.039.651.083.979.215 1.635.662 2.829 1.838 3.549 3.485.117.275.176.559.23.809.024.098.044.201.069.299.014.063.019.132.014.201a1.624 1.624 0 0 1-.48 1.039zm-.764-1.309a2.935 2.935 0 0 0-.156-.568c-.592-1.353-1.571-2.314-2.902-2.853-.186-.079-.421-.108-.676-.138l-.083-.009h-.024c-.035 0-.079.014-.172.093-2.212 2.225-4.43 4.446-6.647 6.666l-2.325 2.328c-.856.853-1.708 1.711-2.559 2.574a.413.413 0 0 0-.093.162c-.304 1.411-.602 2.828-.901 4.239l-.137.643.724-.153 4.122-.867a.388.388 0 0 0 .21-.113c3.847-3.853 7.694-7.71 11.546-11.558a.372.372 0 0 0 .123-.211c-.015-.078-.035-.156-.05-.235zm-12.304.584H5.904a.708.708 0 0 0-.705.705v16.043c0 .388.318.706.705.706h16.015a.708.708 0 0 0 .705-.706v-8.21a.602.602 0 1 1 1.204 0v8.21A1.908 1.908 0 0 1 21.924 28H5.904A1.908 1.908 0 0 1 4 26.093V10.045c0-1.049.852-1.907 1.904-1.907h8.546a.602.602 0 0 1 0 1.207z"/>
</svg>
