<svg xmlns="http://www.w3.org/2000/svg" width="32" height="32">
    <path fill="#999" fill-rule="evenodd" d="M31.358 8.093c-5.13 5.13-10.259 10.267-15.389 15.411a2.12 2.12 0 0 1-1.09.588c-1.827.379-3.661.771-5.488 1.157l-1.148.241c-.112.02-.223.033-.333.033-.392 0-.764-.15-1.032-.418-.346-.347-.483-.856-.378-1.366l.222-1.046c.398-1.889.796-3.777 1.207-5.666.079-.359.281-.725.549-1 1.135-1.157 2.283-2.3 3.425-3.444l3.1-3.104c2.95-2.954 5.906-5.915 8.843-8.869.464-.47.999-.666 1.586-.595l.111.014c.405.052.868.111 1.305.287 2.18.882 3.772 2.451 4.732 4.647.156.366.234.745.306 1.078.032.131.059.268.092.399.02.085.026.176.02.268a2.173 2.173 0 0 1-.64 1.385zm-1.019-1.745c-.058-.281-.117-.549-.209-.758-.789-1.804-2.094-3.084-3.869-3.804-.248-.104-.561-.143-.901-.182l-.11-.014h-.033c-.046 0-.105.02-.229.124-2.95 2.967-5.906 5.928-8.862 8.889l-3.1 3.104a552.463 552.463 0 0 0-3.413 3.431.57.57 0 0 0-.124.216c-.404 1.882-.803 3.771-1.201 5.653l-.183.856.966-.203 5.495-1.156a.508.508 0 0 0 .28-.151c5.13-5.136 10.26-10.28 15.396-15.41a.497.497 0 0 0 .163-.281c-.02-.105-.046-.209-.066-.314zm-16.406.778H2.539a.945.945 0 0 0-.94.941v21.391c0 .516.424.941.94.941h21.353c.516 0 .94-.425.94-.941V18.511a.802.802 0 1 1 1.605 0v10.947A2.544 2.544 0 0 1 23.899 32H2.539A2.544 2.544 0 0 1 0 29.458V8.06a2.543 2.543 0 0 1 2.539-2.542h11.394a.803.803 0 0 1 0 1.608z"/>
</svg>
