<svg xmlns="http://www.w3.org/2000/svg" width="32" height="32">
    <path fill="#6DC02D" fill-rule="evenodd" d="M16 31.999c-8.837 0-16-7.163-16-16.001C0 7.163 7.163 0 16 0c8.836 0 16 7.163 16 15.998 0 8.838-7.164 16.001-16 16.001zm10.077-17.895c-.245-4.259-4.664-7.652-10.08-7.652-5.573 0-10.091 3.593-10.091 8.026 0 4.075 3.817 7.44 8.761 7.958a.546.546 0 0 1 .487.606l-.21 1.895a.55.55 0 0 0 .786.555c4.178-2.016 6.677-4.091 8.168-5.888.272-.327 1.156-1.566 1.337-1.892a6.772 6.772 0 0 0 .772-2.212c.046-.245.069-.45.079-.611a7.886 7.886 0 0 0-.009-.785zm-3.887 2a.516.516 0 1 1 0 1.032h-2.064a.516.516 0 0 1-.516-.516v-3.897c0-.285.231-.516.516-.516h2.064a.516.516 0 1 1 0 1.031h-1.548v.916h1.548a.517.517 0 0 1 0 1.034h-1.548v.916h1.548zm-3.875 1.032a.511.511 0 0 1-.349-.141 594.172 594.172 0 0 1-2.124-2.742v2.367a.516.516 0 1 1-1.033 0v-3.876c0-.281.216-.526.497-.537a.515.515 0 0 1 .404.172c.032.036 2.093 2.725 2.093 2.725v-2.381a.516.516 0 0 1 1.033 0v3.876c0 .286-.235.54-.521.537zm-4.683 0h-.225a.404.404 0 0 1-.404-.403V12.61c0-.222.181-.403.404-.403h.225c.223 0 .403.181.403.403v4.123c0 .222-.18.403-.403.403zm-1.635 0H9.932a.516.516 0 0 1-.516-.516v-3.897a.516.516 0 1 1 1.032 0v3.381h1.549a.516.516 0 1 1 0 1.032z"/>
</svg>
