<svg xmlns="http://www.w3.org/2000/svg" width="32" height="32">
    <path fill="#E7206B" fill-rule="evenodd" d="M16 31.999c-8.837 0-16-7.163-16-16.001C0 7.163 7.163 0 16 0c8.836 0 16 7.163 16 15.998 0 8.838-7.164 16.001-16 16.001zm9.158-19.701a5.463 5.463 0 0 0-5.457-5.457h-7.402a5.463 5.463 0 0 0-5.457 5.457V19.7a5.463 5.463 0 0 0 5.457 5.458h7.403a5.463 5.463 0 0 0 5.456-5.458v-7.402zm-5.456 11.017h-7.403a3.614 3.614 0 0 1-3.615-3.613v-7.404a3.614 3.614 0 0 1 3.615-3.614h7.403a3.615 3.615 0 0 1 3.614 3.614v7.404a3.614 3.614 0 0 1-3.614 3.613zM16 11.262a4.742 4.742 0 0 0-4.738 4.736A4.744 4.744 0 0 0 16 20.737a4.743 4.743 0 0 0 4.737-4.739A4.742 4.742 0 0 0 16 11.262zm4.746-1.099a1.135 1.135 0 1 0 0 2.27 1.135 1.135 0 0 0 0-2.27zM16 18.894a2.894 2.894 0 1 1-.001-5.789A2.894 2.894 0 0 1 16 18.894z"/>
</svg>
