<svg xmlns="http://www.w3.org/2000/svg" width="32" height="32">
    <path fill="#D22215" fill-rule="evenodd" d="M16 31.999c-8.837 0-16-7.163-16-16.001C0 7.163 7.163 0 16 0c8.836 0 16 7.163 16 15.998 0 8.838-7.164 16.001-16 16.001zm9.156-18.675c0-2.1-1.703-3.804-3.803-3.804H10.647a3.805 3.805 0 0 0-3.804 3.804v5.352c0 2.1 1.704 3.803 3.804 3.803h10.706c2.1 0 3.803-1.703 3.803-3.803v-5.352zm-11.383 5.324a.202.202 0 0 1-.288-.182v-4.925a.2.2 0 0 1 .292-.179l5.008 2.538a.2.2 0 0 1-.004.36l-5.008 2.388z"/>
</svg>
