<svg xmlns="http://www.w3.org/2000/svg" width="20" height="20">
    <path fill="none" fill-rule="evenodd" d="M0 0h20v20H0V0z"/>
    <path fill="#D70B24" fill-rule="evenodd" d="M18.643 8.123l-1.79 5.35s-.149.795-.904.795H6.927c-.903 0-.939-.997-.939-.997S5.029 6.11 4.983 5.676c-.051-.434-.6-.754-.6-.754l-2.365-1.11c-1.292-.682-.703-1.978 0-1.684 3.001 1.425 4.397 2.127 4.483 2.69.093.558.253 1.915.253 1.915v.006c.014-.006.03-.006.03-.006h11.054c1.333 0 .805 1.395.805 1.39zm-11.178 4.42h8.167l.425-1.441h-8.77l.178 1.441zM6.927 8.2l.19 1.539h9.34L16.91 8.2H6.927zm1.324 6.791c.8 0 1.452.65 1.452 1.461 0 .805-.652 1.461-1.452 1.461-.8 0-1.452-.656-1.452-1.461 0-.811.652-1.461 1.452-1.461zm6.337 0c.799 0 1.451.65 1.451 1.461 0 .805-.652 1.461-1.451 1.461a1.46 1.46 0 0 1-1.458-1.461c0-.811.651-1.461 1.458-1.461z"/>
</svg>
