<svg xmlns="http://www.w3.org/2000/svg" width="54" height="57">
    <path fill="#D70146" fill-rule="evenodd" d="M10.797 24.097a5.426 5.426 0 0 0-.874-2.375L51.432 7.799l-2.179-6.558a1.808 1.808 0 0 0-2.29-1.148L1.811 15.239a1.822 1.822 0 0 0-1.145 2.302l1.069 3.214a5.453 5.453 0 0 0 1.042 8.74V55.18c0 1.004.811 1.819 1.81 1.819H52.19c.998 0 1.81-.815 1.81-1.819V24.097H10.797zM37.254 5.489l5.495-1.843-1.323 5.37-5.495 1.843 1.323-5.37zm-13.578 4.554L29.173 8.2l-1.323 5.37-5.496 1.844 1.322-5.371zM5.418 27.517a2.77 2.77 0 0 1-2.761-2.774 2.77 2.77 0 0 1 2.761-2.773 2.77 2.77 0 0 1 2.761 2.773 2.77 2.77 0 0 1-2.761 2.774zm4.681-12.919l5.497-1.844-1.323 5.371-5.496 1.843 1.322-5.37zm5.399 15.641H9.705l2.946-4.673h5.794l-2.947 4.673zm11.467-4.673h5.794l-2.947 4.673h-5.794l2.947-4.673zm-1.422 22.583V35.822l9.771 6.163-9.771 6.164zm18.582-17.91h-5.793l2.947-4.673h5.794l-2.948 4.673z"/>
</svg>
