<svg xmlns="http://www.w3.org/2000/svg" width="20" height="20">
    <path fill="none" d="M0 0h20v20H0V0z"/>
    <path fill="#D70B24" fill-rule="evenodd" d="M16.663 17.914H3.344c-.513 0-.916-.435-.836-.92.571-3.472 3.709-6.127 7.495-6.127 3.787 0 6.923 2.655 7.496 6.127.079.485-.324.92-.836.92zm-6.66-5.711c-2.843 0-5.261 1.806-5.98 4.376h11.96c-.719-2.57-3.137-4.376-5.98-4.376zm0-1.904C7.796 10.299 6 8.457 6 6.192c0-2.264 1.796-4.106 4.003-4.106s4.003 1.842 4.003 4.106c0 2.265-1.796 4.107-4.003 4.107zm0-6.996c-1.553 0-2.816 1.297-2.816 2.889 0 1.594 1.263 2.89 2.816 2.89s2.817-1.296 2.817-2.89c0-1.592-1.264-2.889-2.817-2.889z"/>
</svg>
