<svg xmlns="http://www.w3.org/2000/svg" width="64" height="64">
    <path fill="#D22215" fill-rule="evenodd" d="M32 63.999c-17.673 0-32-14.327-32-32 0-17.673 14.327-32 32-32 17.672 0 32 14.327 32 32 0 17.673-14.328 32-32 32zm18.312-37.352a7.606 7.606 0 0 0-7.606-7.606H21.294a7.606 7.606 0 0 0-7.607 7.606v10.704a7.606 7.606 0 0 0 7.607 7.606h21.412a7.606 7.606 0 0 0 7.606-7.606V26.647zM37.561 32.52l-10.014 4.776a.402.402 0 0 1-.576-.362v-9.852c0-.3.316-.494.584-.359l10.015 5.075a.402.402 0 0 1-.009.722z"/>
</svg>
