<svg xmlns="http://www.w3.org/2000/svg" width="24" height="24">
    <path fill="#D70146" fill-rule="evenodd" d="M23.263 21.797l-1.708 1.708c-.304.303-1.197.495-1.224.495A20.168 20.168 0 0 1 5.9 18.098 20.166 20.166 0 0 1 0 3.619c0-.003.196-.871.5-1.172L2.207.738C2.833.112 4.033-.171 4.873.109l.36.121c.84.28 1.718 1.207 1.951 2.061l.859 3.155c.234.855-.08 2.072-.705 2.698L6.196 9.285a12.107 12.107 0 0 0 8.518 8.522l1.142-1.141c.625-.626 1.845-.939 2.7-.706l3.155.862c.852.231 1.78 1.108 2.061 1.949l.119.36c.28.841-.003 2.041-.628 2.666z"/>
</svg>
