<svg xmlns="http://www.w3.org/2000/svg" width="20" height="20">
    <path fill="none" d="M0 0h20v20H0V0z"/>
    <path fill="#D70146" fill-rule="evenodd" d="M18.642 8.123l-1.789 5.35s-.149.795-.904.795H6.927c-.902 0-.939-.996-.939-.996S5.029 6.11 4.983 5.676c-.051-.434-.6-.754-.6-.754l-2.364-1.11c-1.293-.681-.703-1.978 0-1.684 3 1.425 4.396 2.127 4.482 2.69.092.558.252 1.914.252 1.914v.007c.015-.007.031-.007.031-.007h11.053c1.335 0 .805 1.396.805 1.391zm-11.176 4.42h8.166l.425-1.441h-8.77l.179 1.441zm-.539-4.342l.19 1.538h9.34l.452-1.538H6.927zm1.324 6.791c.8 0 1.452.65 1.452 1.459a1.46 1.46 0 0 1-1.452 1.463A1.46 1.46 0 0 1 6.8 16.451c0-.809.65-1.459 1.451-1.459zm6.337 0c.799 0 1.451.65 1.451 1.459a1.46 1.46 0 0 1-1.451 1.463 1.461 1.461 0 0 1 0-2.922z"/>
</svg>
