<svg xmlns="http://www.w3.org/2000/svg" width="32" height="32">
    <path fill-rule="evenodd" d="M16 32C7.188 32 0 24.812 0 16 0 7.187 7.188 0 16 0c8.812 0 16 7.16 16 16s-7.188 16-16 16zm0-29.742C8.426 2.258 2.258 8.427 2.258 16c0 7.573 6.168 13.742 13.742 13.742 7.573 0 13.741-6.169 13.741-13.742 0-7.573-6.168-13.742-13.741-13.742zm-2.093 21.728c-.221.22-.523.331-.798.331a1.13 1.13 0 0 1-.799-1.928l6.471-6.472-6.471-6.472a1.128 1.128 0 1 1 1.597-1.596l7.271 7.27c.22.22.33.496.33.798a1.1 1.1 0 0 1-.33.798l-7.271 7.271z"/>
</svg>
