<svg xmlns="http://www.w3.org/2000/svg" width="64" height="40">
    <path fill="#D70B24" fill-rule="evenodd" d="M63.895 23.589L60.38 34.077a2.123 2.123 0 0 1-1.667 1.415c-.272-4.179-3.719-7.514-7.971-7.659l1.759-6.964h9.836c.503.112.955.399 1.263.822.4.549.509 1.255.295 1.898zm-8.733-13.26h3.196c1.174 0 2.126.941 2.131 2.102l.017 5.066h-7.154l1.81-7.168zm-8.115 18.224c-2.726 1.222-4.668 3.864-4.859 6.968H28.843c-.262-4.287-3.867-7.694-8.264-7.694-4.395 0-8 3.407-8.261 7.694h-1.402a2.14 2.14 0 0 1-1.662-.79 2.091 2.091 0 0 1-.417-1.776l1.766-7.868H2.13A2.12 2.12 0 0 1 0 22.978a2.12 2.12 0 0 1 2.13-2.109h9.42l1.006-4.478H5.644a2.12 2.12 0 0 1-2.13-2.109 2.12 2.12 0 0 1 2.13-2.109h7.858l1.006-4.479h-3.592a2.119 2.119 0 0 1-2.131-2.108c0-1.164.954-2.107 2.131-2.107h4.539l.41-1.829A2.125 2.125 0 0 1 17.945 0H51.33c.646 0 1.258.291 1.662.789.404.498.557 1.152.417 1.776l-6.362 25.988zm-26.468 3.489c2.218 0 4.021 1.785 4.021 3.978 0 2.196-1.803 3.98-4.021 3.98-2.215 0-4.019-1.784-4.019-3.98 0-2.193 1.804-3.978 4.019-3.978zm29.872 0c2.217 0 4.02 1.785 4.02 3.978 0 2.196-1.803 3.98-4.02 3.98-2.217 0-4.019-1.784-4.019-3.98 0-2.193 1.802-3.978 4.019-3.978z"/>
</svg>
