<svg xmlns="http://www.w3.org/2000/svg" width="20" height="20">
    <path fill="none" d="M0 0h20v20H0V0z"/>
    <path fill="#D70146" fill-rule="evenodd" d="M16.662 17.915H3.343c-.512 0-.915-.437-.835-.921.572-3.472 3.709-6.127 7.495-6.127s6.923 2.655 7.496 6.127c.08.484-.323.921-.837.921zm-6.659-5.712c-2.843 0-5.261 1.806-5.98 4.376h11.96c-.718-2.57-3.137-4.376-5.98-4.376zm0-1.904C7.796 10.299 6 8.458 6 6.193c0-2.265 1.796-4.107 4.003-4.107s4.003 1.842 4.003 4.107-1.796 4.106-4.003 4.106zm0-6.995c-1.553 0-2.816 1.296-2.816 2.889 0 1.592 1.263 2.889 2.816 2.889s2.816-1.297 2.816-2.889c0-1.593-1.263-2.889-2.816-2.889z"/>
</svg>
