<svg xmlns="http://www.w3.org/2000/svg" width="254" height="36">
    <path fill="#D70146" fill-rule="evenodd" d="M253.29 36.002c-.463 0-.682-.359-.791-.635l-4.136-9.883h-19.197l-4.135 9.883c-.109.276-.327.635-.791.635-.355 0-.709-.248-.709-.718 0-.11.022-.221.077-.359L238.009.74c.16-.405.348-.748.756-.748.407 0 .596.343.756.748l14.401 34.185a.941.941 0 0 1 .077.359c0 .47-.354.718-.709.718zM238.765 2.546l-9.034 21.587h18.067l-9.033-21.587zm-28.543 33.456a.742.742 0 0 1-.738-.747v-.218c0-5.289-3.558-14.305-9.207-17.008-.317-.124-.568-.113-.761-.113h-.054l-.149.002h-10.624v17.337c0 .413-.33.747-.738.747a.743.743 0 0 1-.738-.747V.795c0-.441.353-.799.787-.802v-.001h11.313c6.73 0 10.4 3.154 10.4 8.976 0 4.594-2.709 7.708-7.288 8.649 5.305 3.718 8.535 12.371 8.535 17.42v.218c0 .413-.33.747-.738.747zM208.26 8.968c0-5.005-3.162-7.62-9.098-7.62h-10.473v15.214h10.473c2.69 0 9.098-.809 9.098-7.594zm-35.832 27.034c-.464 0-.682-.359-.791-.635l-4.136-9.883H148.304l-4.136 9.883c-.109.276-.327.635-.791.635-.354 0-.709-.248-.709-.718a.96.96 0 0 1 .077-.359L157.146.74c.161-.405.349-.748.756-.748.408 0 .596.343.756.748l14.402 34.185a.96.96 0 0 1 .077.359c0 .47-.355.718-.709.718zM157.902 2.546l-9.033 21.587H166.936l-9.034-21.587zm-30.008 32.71c0 .412-.33.747-.738.747-.593 0-.856-.424-1.097-.748l-.064-.088-23.9-32.399v32.487a.743.743 0 0 1-.738.747.742.742 0 0 1-.738-.747V.74c0-.413.33-.748.738-.748.563 0 .817.424 1.058.748l24.012 32.439V.74c0-.413.331-.748.738-.748.408 0 .738.335.738.748v34.515h-.009v.001zm-43.168.746c-.464 0-.682-.359-.791-.635l-4.136-9.883H60.602l-4.136 9.883c-.109.276-.327.635-.791.635-.354 0-.709-.248-.709-.718a.96.96 0 0 1 .077-.359L69.444.74c.161-.405.349-.748.756-.748.408 0 .596.343.756.748l14.402 34.185a.96.96 0 0 1 .077.359c0 .47-.355.718-.709.718zM70.2 2.546l-9.033 21.587H79.234L70.2 2.546zM41.724 36.002c-.464 0-.682-.359-.791-.635L29.786 2.938l-7.79 22.663 3.222 9.324a.96.96 0 0 1 .077.359c0 .47-.355.718-.709.718-.464 0-.682-.359-.791-.635l-2.578-7.5-2.578 7.5c-.11.276-.328.635-.791.635-.355 0-.709-.248-.709-.718 0-.11.022-.221.077-.359h-.001l3.223-9.324-7.791-22.663L1.5 35.367c-.109.276-.327.635-.791.635-.354 0-.709-.248-.709-.718a.96.96 0 0 1 .077-.359L11.891.74V.739c.161-.404.349-.747.756-.747.408 0 .596.343.757.747l7.813 22.608L29.029.74l.001-.001c.16-.404.348-.747.756-.747.407 0 .595.343.756.747l11.814 34.186a.941.941 0 0 1 .077.359c0 .47-.354.718-.709.718z"/>
</svg>
