<?xml version="1.0" encoding="utf-8"?>
<!-- Generator: Adobe Illustrator 16.0.0, SVG Export Plug-In . SVG Version: 6.00 Build 0)  -->
<!DOCTYPE svg PUBLIC "-//W3C//DTD SVG 1.1//EN" "http://www.w3.org/Graphics/SVG/1.1/DTD/svg11.dtd">
<svg version="1.1" id="レイヤー_1" xmlns="http://www.w3.org/2000/svg" xmlns:xlink="http://www.w3.org/1999/xlink" x="0px"
	 y="0px" width="147px" height="58px" viewBox="0 0 147 58" enable-background="new 0 0 147 58" xml:space="preserve">
<g>
	<path fill="#D70B24" d="M55.847,51.007V29.969h-3.193c0,0,0,2.169,0,3.111c-0.928-1.163-1.988-1.91-3.175-2.541
		c-1.384-0.734-2.964-1.113-4.673-1.113c-2.956,0-5.533,1.084-7.635,3.238c-2.105,2.141-3.18,4.758-3.18,7.769
		c0,3.089,1.058,5.716,3.148,7.872c2.092,2.144,4.652,3.25,7.592,3.25c1.66,0,3.219-0.365,4.619-1.067
		c1.211-0.602,2.305-1.289,3.303-2.397c0,0.864,0,2.917,0,2.917H55.847z M51.56,44.675c-0.656,1.188-1.613,2.151-2.826,2.855
		c-1.24,0.702-2.563,1.05-3.934,1.05c-1.371,0-2.649-0.348-3.839-1.06c-1.187-0.708-2.146-1.713-2.851-2.979
		c-0.718-1.277-1.062-2.622-1.062-4.022c0-1.402,0.345-2.759,1.049-4.017c0.709-1.264,1.658-2.256,2.82-2.951
		c1.199-0.693,2.498-1.053,3.893-1.053c2.174,0,4.027,0.785,5.517,2.323c1.479,1.544,2.239,3.481,2.239,5.77
		C52.565,42.1,52.237,43.475,51.56,44.675z"/>
	<path fill="#D70B24" d="M3.199,42.062c0-2.522,0.257-4.402,0.738-5.596c0.489-1.193,1.241-2.141,2.247-2.847
		c1.008-0.698,2.111-1.058,3.26-1.058c0.985,0,1.855,0.258,2.566,0.756c0.709,0.497,1.229,1.164,1.503,1.991
		c0.3,0.847,0.452,2.507,0.452,4.949v10.748h3.184v-8.289c0-2.897,0.244-4.974,0.725-6.188c0.457-1.187,1.211-2.162,2.216-2.883
		c1.003-0.725,2.13-1.084,3.333-1.084c0.992,0,1.854,0.244,2.557,0.711c0.707,0.468,1.207,1.094,1.501,1.855
		c0.3,0.783,0.451,2.274,0.451,4.428v11.45h3.194v-11.47c0-2.584-0.271-4.555-0.812-5.858c-0.538-1.337-1.377-2.378-2.505-3.134
		c-1.122-0.74-2.43-1.119-3.876-1.119c-1.555,0-3.019,0.444-4.368,1.293c-1.216,0.773-2.238,1.926-3.079,3.34
		c-0.383-0.986-0.82-1.826-1.323-2.406c-0.595-0.67-1.356-1.214-2.283-1.619c-0.916-0.41-1.907-0.607-2.927-0.607
		c-1.527,0-2.977,0.43-4.347,1.262c-0.823,0.518-1.627,1.345-2.406,2.344c0-0.94,0-3.062,0-3.062H0v21.038h3.199V42.062z"/>
	<path fill="#D70B24" d="M110.072,51.007V29.969h-3.204c0,0,0,2.169,0,3.111c-0.932-1.163-1.964-1.91-3.16-2.541
		c-1.385-0.734-2.967-1.113-4.675-1.113c-2.961,0-5.531,1.084-7.637,3.238c-2.103,2.141-3.172,4.758-3.172,7.769
		c0,3.089,1.06,5.716,3.138,7.872c2.085,2.144,4.642,3.25,7.582,3.25c1.676,0,3.232-0.365,4.62-1.067
		c1.224-0.602,2.317-1.289,3.304-2.397c0,0.864,0,2.917,0,2.917H110.072z M105.793,44.675c-0.663,1.188-1.62,2.151-2.844,2.855
		c-1.246,0.702-2.557,1.05-3.931,1.05c-1.354,0-2.648-0.348-3.835-1.06c-1.176-0.708-2.146-1.713-2.844-2.979
		c-0.718-1.277-1.073-2.622-1.073-4.022c0-1.402,0.355-2.759,1.06-4.017c0.704-1.264,1.654-2.256,2.83-2.951
		c1.176-0.693,2.492-1.053,3.877-1.053c2.184,0,4.032,0.785,5.516,2.323c1.49,1.544,2.235,3.481,2.235,5.77
		C106.784,42.1,106.466,43.475,105.793,44.675z"/>
	<polygon fill="#D70B24" points="64.077,30.562 84.578,54.169 84.578,17.747 80.968,17.747 80.968,45.088 60.454,21.485 
		60.454,58.456 64.077,58.456 	"/>
	<path fill="#D70B24" d="M114.536,29.969v21.038h3.186v-7.194c0-3.509,0.171-5.871,0.485-7.01c0.405-1.45,1.008-2.543,1.784-3.222
		c0.772-0.674,1.574-1.019,2.379-1.019c0.205,0,0.76,0.076,1.47,0.359l0.185,0.079l1.504-1.808l0.321-0.291l0.417-0.379l-0.26-0.194
		c-1.335-0.993-2.57-1.071-3.22-1.034c-0.957,0.059-1.935,0.409-2.926,1.057c-0.744,0.486-1.455,1.232-2.14,2.107
		c0-0.844,0-2.49,0-2.49H114.536z"/>
	<path fill="#D70B24" d="M147,51.007V29.969h-3.179c0,0,0,2.169,0,3.111c-0.937-1.163-1.996-1.91-3.183-2.541
		c-1.384-0.734-2.963-1.113-4.671-1.113c-2.973,0-5.529,1.084-7.639,3.238c-2.11,2.141-3.175,4.758-3.175,7.769
		c0,3.089,1.063,5.716,3.149,7.872c2.09,2.144,4.635,3.25,7.581,3.25c1.661,0,3.213-0.365,4.621-1.067
		c1.203-0.602,2.306-1.289,3.315-2.397c0,0.864,0,2.917,0,2.917H147z M142.728,44.675c-0.661,1.188-1.621,2.151-2.857,2.855
		c-1.217,0.702-2.536,1.05-3.917,1.05c-1.355,0-2.649-0.348-3.842-1.06c-1.187-0.708-2.146-1.713-2.851-2.979
		c-0.697-1.277-1.06-2.622-1.06-4.022c0-1.402,0.362-2.759,1.049-4.017c0.701-1.264,1.664-2.256,2.841-2.951
		c1.176-0.693,2.479-1.053,3.89-1.053c2.167,0,4.02,0.785,5.503,2.323c1.493,1.544,2.24,3.481,2.24,5.77
		C143.724,42.1,143.391,43.475,142.728,44.675z"/>
</g>
<g>
	<path fill="#231815" d="M2.876,6.509c-0.418,0-0.43,0.137-0.484,0.629c-0.238,2.35-1.448,3.48-1.585,3.48
		c-0.014,0-0.021-0.007-0.021-0.021s0.338-0.75,0.393-0.896c0.489-1.188,0.624-2.142,0.624-5.725c0-0.323,0-1.911-0.091-2.544
		C1.701,1.342,1.589,0.853,1.589,0.739c0-0.052,0.021-0.079,0.104-0.079c0.133,0,0.235,0.069,0.607,0.271
		c0.236,0.137,0.41,0.129,0.547,0.129h1.006c0.119,0,0.248-0.013,0.372-0.091c0.041-0.038,0.194-0.253,0.249-0.253
		c0.079,0,0.77,0.603,0.77,0.747c0,0.095,0,0.095-0.236,0.265c-0.096,0.08-0.096,0.191-0.096,0.518c0,0.469-0.041,2.789-0.055,3.309
		c0,0.485,0.014,2.892,0.014,3.432c0,0.287,0.01,0.9-0.273,1.273c-0.137,0.178-0.416,0.488-0.607,0.488
		c-0.082,0-0.104-0.05-0.367-0.447c-0.08-0.145-0.201-0.304-0.494-0.493C3.069,9.77,2.731,9.647,2.731,9.575
		c0-0.031,0.044-0.031,0.058-0.031c0.079,0,0.769,0.147,0.916,0.147c0.284,0,0.316-0.195,0.339-0.283
		c0.034-0.207,0.078-2.245,0.078-2.571c0-0.171-0.055-0.328-0.338-0.328H2.876z M2.868,3.936c-0.117,0-0.353,0-0.353,0.314
		c0,0.208-0.021,1.123-0.021,1.317c0,0.51,0,0.647,0.352,0.647h0.96c0.112,0,0.339,0,0.339-0.318c0-0.258,0.021-1.417,0.021-1.653
		c0-0.307-0.225-0.307-0.353-0.307H2.868z M2.888,1.363c-0.099,0-0.334,0-0.334,0.314c0,0.195-0.018,1.037-0.018,1.204
		c0,0.638,0,0.761,0.34,0.761h0.938c0.104,0,0.343,0,0.343-0.331c0-0.244-0.023-1.335-0.023-1.55c0-0.192,0-0.398-0.34-0.398H2.888z
		 M8.446,1.103c0.092,0,0.201,0,0.314-0.069C8.798,1.01,8.976,0.853,9.022,0.853c0.069,0,0.794,0.603,0.794,0.726
		c0,0.071-0.038,0.116-0.206,0.206C9.396,1.91,9.396,2.022,9.386,2.263C9.373,2.643,9.27,8.391,9.27,8.929
		c0,0.526,0.048,0.783,0.588,0.783c0.612,0,0.646-0.224,0.763-1.213c0.02-0.188,0.136-1.153,0.191-1.153
		c0.044,0,0.088,0.486,0.088,0.592c0.07,0.734,0.137,1.5,0.285,1.629c0.137,0.124,0.158,0.135,0.158,0.24
		c0,0.531-1.039,0.708-1.643,0.708c-0.352,0-0.848-0.055-1.062-0.394C8.479,9.861,8.479,9.75,8.479,8.764
		c0-0.265,0.115-5.03,0.115-5.951c0-1.351-0.012-1.403-0.364-1.403H7.362c-0.344,0-0.344,0.246-0.344,0.339
		c0,4.02-0.078,5.584-0.634,6.878c-0.509,1.163-1.481,1.926-1.584,1.926c-0.032,0,0.326-0.53,0.364-0.581
		C6.169,8.47,6.248,6.837,6.248,4.14c0-0.362,0-2.425-0.167-3.15C6.07,0.932,5.988,0.709,5.988,0.66
		c0-0.067,0.037-0.102,0.103-0.102c0.148,0,0.688,0.387,0.803,0.445c0.205,0.099,0.332,0.099,0.451,0.099H8.446z"/>
	<path fill="#231815" d="M15.312,6.43c0-0.34,0.317-0.705,1.083-1.599c0.514-0.588,0.965-1.529,0.965-1.686
		c0-0.072-0.079-0.079-0.123-0.079c-0.113,0-0.578,0.085-0.681,0.085c-0.429,0-1.005-0.555-1.005-0.995c0-0.032,0-0.079,0.068-0.079
		s0.362,0.185,0.428,0.214c0.133,0.069,0.443,0.206,0.746,0.206c0.932,0,0.932-0.308,0.932-0.534c0-0.072-0.014-0.25-0.092-0.396
		c-0.037-0.056-0.273-0.265-0.273-0.33c0-0.092,0.293-0.179,0.5-0.179c0.271,0,0.556,0.1,0.576,0.35
		c0.012,0.147,0.059,0.167,0.51,0.205c0.078,0,0.509,0.055,0.509,0.294c0,0.373-0.823,0.688-1.351,0.892
		c-0.164,0.07-0.178,0.09-0.43,0.667c-0.266,0.624-0.314,0.716-0.609,1.226c-0.057,0.103-0.078,0.136-0.078,0.182
		c0,0.021,0.014,0.044,0.045,0.044c0.033,0,0.249-0.082,0.35-0.123c0.129-0.059,0.271-0.093,0.443-0.093
		c0.144,0,0.67,0.022,0.963,0.69c0.079,0.192,0.09,0.215,0.113,0.215c0.032,0,0.404-0.519,0.461-0.611
		c0.373-0.52,1.111-1.554,2.096-1.554c0.625,0,1.062,0.532,1.062,1.012c0,0.535-0.893,0.908-1.592,1.209
		c-0.285,0.129-1.566,0.638-1.768,0.763c-0.182,0.113-0.195,0.236-0.195,0.473c0,0.103,0.024,0.579,0.024,0.684
		c0,0.178,0,0.825-0.417,0.825c-0.311,0-0.352-0.373-0.352-0.58c0-0.109,0.033-0.656,0.033-0.668c0-0.046,0-0.135-0.078-0.135
		c-0.092,0-1.098,0.702-1.098,1.349c0,0.784,1.132,0.784,1.457,0.784c0.285,0,0.5-0.024,0.725-0.07
		c0.16-0.026,0.885-0.204,1.033-0.204c0.237,0,0.553,0.113,0.553,0.386c0,0.7-1.755,0.75-2.025,0.75
		c-1.439,0-2.193-0.592-2.193-1.489c0-0.725,0.431-1.084,1.49-1.947c0.115-0.095,0.172-0.227,0.172-0.397
		c0-0.51-0.09-1.145-0.544-1.145c-0.431,0-1.097,0.522-1.392,1.203c-0.125,0.281-0.252,0.554-0.611,0.554
		C15.528,6.803,15.312,6.734,15.312,6.43z M18.2,2.146c0.021,0,0.564-0.147,0.564-0.273c0-0.145-0.287-0.168-0.387-0.168
		c-0.156,0-0.201,0.317-0.201,0.363C18.177,2.108,18.177,2.146,18.2,2.146z M19.228,5.818c0,0.021,0.012,0.058,0.05,0.058
		c0.028,0,2.259-0.909,2.259-1.657c0-0.283-0.249-0.342-0.393-0.342C20.2,3.877,19.228,5.638,19.228,5.818z"/>
	<path fill="#231815" d="M28.257,2.714c0.646,0.382,0.716,0.417,0.716,0.496s-0.33,0.25-0.376,0.308
		c-0.091,0.086-0.419,0.51-0.484,0.588C27.665,4.616,27.235,5,26.647,5.294c-0.066,0.034-0.315,0.15-0.359,0.15
		c-0.043,0-0.014-0.058,0.01-0.072c0.557-0.575,1.169-1.417,1.483-2.221c0.038-0.085,0.124-0.555,0.157-0.575
		C27.985,2.557,28.088,2.611,28.257,2.714z M34.313,1.852c0.459,0,0.594,0,0.724-0.195c0.28-0.461,0.318-0.51,0.429-0.51
		c0.303,0,1.065,0.784,1.065,0.852c0,0.147-0.237,0.147-0.602,0.147h-2.57c-0.317,0-0.358,0.146-0.358,0.353
		c0,0.281,0.041,1.848,0.041,2.197c0,0.327-0.041,0.657-0.394,0.907c-0.227,0.167-0.451,0.236-0.577,0.236
		c-0.186,0-0.191-0.055-0.293-0.363c-0.035-0.109-0.148-0.317-0.455-0.499c-0.045-0.021-0.247-0.112-0.247-0.137
		c0-0.021,0.058-0.021,0.079-0.021c0.115,0,0.652,0.013,0.758,0c0.325-0.058,0.325-0.137,0.325-0.903c0-0.367,0-1.123-0.008-1.464
		c-0.013-0.306-0.214-0.306-0.351-0.306h-0.804c-0.331,0-0.331,0.059-0.41,0.547c-0.28,1.732-0.998,2.557-1.843,3.076
		c-0.918,0.558-1.846,0.615-1.865,0.615c-0.125,0,0.041-0.08,0.156-0.136c0.981-0.479,1.764-0.853,2.205-1.783
		c0.27-0.551,0.512-1.451,0.512-2.015c0-0.271-0.146-0.306-0.341-0.306h-1.162c-0.841,0-1.179,0.011-1.429,0.035
		c-0.045,0-0.201,0.024-0.239,0.024c-0.042,0-0.064-0.038-0.099-0.071l-0.229-0.261c-0.021-0.032-0.044-0.058-0.044-0.079
		c0-0.01,0.01-0.021,0.044-0.021c0.079,0,0.422,0.034,0.501,0.034c0.634,0.033,1.255,0.044,1.549,0.044h2.082
		c0.351,0,0.396-0.091,0.396-0.568c0-0.157-0.014-0.359-0.078-0.53c-0.014-0.024-0.078-0.202-0.078-0.229
		c0-0.045,0.058-0.045,0.086-0.045c0.057,0,0.86,0.137,1.031,0.157c0.059,0.014,0.201,0.034,0.201,0.15
		c0,0.065-0.006,0.079-0.156,0.194c-0.088,0.066-0.088,0.258-0.088,0.439c0,0.353,0.053,0.431,0.337,0.431H34.313z M32.491,6.493
		c0.248,0,0.303-0.008,0.373-0.063c0.078-0.069,0.451-0.534,0.574-0.534c0.058,0,0.932,0.476,0.932,0.712
		c0,0.126-0.149,0.182-0.238,0.205c-0.25,0.056-0.271,0.056-0.4,0.226c-0.574,0.736-0.912,1.064-1.104,1.245
		c-0.184,0.185-0.273,0.264-0.273,0.329c0,0.195,1.221,0.647,3.001,0.647c0.178,0,1.183-0.079,1.261-0.058
		c-0.028,0.058-0.123,0.183-0.156,0.207c-0.216,0.191-0.476,0.564-0.53,0.734c-0.058,0.181-0.123,0.283-0.239,0.283
		c-0.463,0-2.317-0.35-3.589-1.146c-0.244-0.144-0.28-0.157-0.35-0.157c-0.08,0-0.146,0.047-0.337,0.171
		c-1.562,1.076-4.027,1.291-4.74,1.291c-0.035,0-0.135,0-0.135-0.045c0-0.008,0.041-0.058,0.12-0.065
		c0.737-0.137,1.483-0.366,1.925-0.502c1.824-0.588,2.557-1.243,2.557-1.395c0-0.08-0.065-0.159-0.123-0.211
		c-0.195-0.206-0.473-0.565-0.783-1.092c-0.032-0.065-0.078-0.12-0.157-0.12c-0.065,0-0.574,0.438-0.69,0.517
		c-1.139,0.797-2.445,0.955-2.581,0.955c-0.01,0-0.053,0-0.053-0.049c0-0.03,0.452-0.188,0.532-0.225
		c1.062-0.472,2.067-1.235,2.623-2.378c0.046-0.092,0.215-0.579,0.268-0.579c0.038,0,0.082,0.027,0.448,0.192
		C30.86,5.69,31.19,5.853,31.19,5.961c0,0.102-0.082,0.151-0.186,0.216c-0.045,0.021-0.223,0.128-0.223,0.229
		c0,0.087,0.1,0.087,0.178,0.087H32.491z M30.745,6.803c-0.432,0-0.451,0.079-0.451,0.158c0,0.215,0.96,1.256,1.258,1.256
		c0.235,0,1.076-1.119,1.076-1.276c0-0.137-0.127-0.137-0.195-0.137H30.745z M33.767,2.872c0.826,0,2.32,0.961,2.32,1.777
		c0,0.397-0.239,0.659-0.455,0.659c-0.189,0-0.222-0.071-0.529-0.738c-0.225-0.486-0.848-1.325-1.32-1.599
		c-0.037-0.01-0.095-0.041-0.079-0.062C33.703,2.881,33.745,2.872,33.767,2.872z"/>
	<path fill="#231815" d="M44.231,3.7c0.158-0.058,0.332-0.082,0.478-0.082c0.452,0,0.802,0.281,0.802,0.625
		c0,0.406-0.429,0.803-1.311,1.619c-0.125,0.122-0.836,0.784-0.836,0.872c0,0.045,0.058,0.069,0.113,0.069
		c0.023,0,0.215-0.024,0.245-0.024c0.422,0,0.828,0.376,0.828,0.828c0,0.116-0.065,0.625-0.065,0.733
		c0,0.115,0.02,0.638,0.652,0.638c0.316,0,1.711-0.307,1.996-0.307c0.302,0,0.596,0.171,0.596,0.431
		c0,0.609-0.938,0.711-2.161,0.711c-1.345,0-1.538-0.711-1.552-1.495c-0.021-0.917-0.021-1.02-0.359-1.02
		c-0.229,0-0.974,0.209-1.596,1.362c-0.316,0.578-0.499,0.914-0.881,0.914c-0.285,0-0.408-0.257-0.408-0.405
		c0-0.307,0-0.43,1.854-2.463c0.974-1.069,1.859-2.035,1.859-2.361c0-0.127-0.07-0.195-0.195-0.195
		c-0.157,0-0.475,0.236-0.633,0.373c-0.258,0.215-0.588,0.442-0.919,0.442c-0.653,0-0.971-0.815-0.971-0.932
		c0-0.041,0.024-0.086,0.079-0.086c0.03,0,0.294,0.079,0.317,0.079c0.161,0.044,0.317,0.085,0.554,0.085
		C43.105,4.114,43.214,4.084,44.231,3.7z M43.056,1.048c0.172,0.042,0.961,0.191,1.111,0.227c0.376,0.102,0.711,0.361,0.711,0.668
		c0,0.087-0.066,0.32-0.314,0.32c-0.791,0-0.818,0-1.086,0.099c-0.078,0.021-0.4,0.202-0.466,0.202
		c-0.021,0-0.042-0.024-0.042-0.056c0-0.079,0.508-0.588,0.508-0.723c0-0.069-0.186-0.186-0.422-0.35
		c-0.351-0.238-0.379-0.374-0.379-0.431c0-0.034,0.021-0.058,0.041-0.058C42.755,0.945,42.999,1.034,43.056,1.048z"/>
	<path fill="#231815" d="M57.203,7.255c0-0.927-0.782-1.724-1.917-1.724c-1.494,0-2.455,1.554-2.656,1.906
		c-0.229,0.387-0.337,0.602-0.646,0.602c-0.273,0-0.328-0.229-0.328-0.315c0-0.287,0.093-0.536,0.896-1.474
		c0.73-0.862,0.848-1.012,2.557-3.412c0.372-0.534,0.529-0.77,0.529-0.895c0-0.079-0.078-0.159-0.215-0.159
		c-0.418,0-1.084,0.564-1.279,0.723c-0.451,0.374-0.607,0.409-0.803,0.409c-0.529,0-0.882-0.725-0.882-0.782
		c0-0.033,0.034-0.033,0.273-0.033c0.601,0,1.436-0.27,1.751-0.407c0.703-0.311,0.781-0.339,1.031-0.339
		c0.455,0,1.188,0.281,1.188,0.779c0,0.327-0.262,0.509-0.802,0.882c-0.816,0.582-1.812,2.135-1.812,2.324
		c0,0.033,0.035,0.083,0.072,0.083c0.062-0.027,0.215-0.083,0.277-0.106c0.367-0.136,0.684-0.18,0.998-0.18
		c1.451,0,2.547,1.078,2.547,2.354c0,1.438-1.393,2.45-2.832,2.45c-1.119,0-1.922-0.602-1.922-1.17c0-0.403,0.477-0.916,1.12-0.916
		c0.534,0,0.974,0.32,1.288,0.723c0.157,0.206,0.229,0.309,0.39,0.309C56.409,8.887,57.203,8.196,57.203,7.255z M54.294,8.275
		c-0.27,0-0.477,0.215-0.477,0.397c0,0.294,0.487,0.53,0.973,0.53c0.116,0,0.195-0.079,0.195-0.202
		C54.985,8.73,54.712,8.275,54.294,8.275z"/>
	<path fill="#231815" d="M62.778,10.532c-0.233,0-0.285-0.079-0.654-0.762c-0.229-0.394-0.521-0.791-1.188-1.215
		c-0.038-0.021-0.157-0.099-0.157-0.135c0-0.029,0.031-0.079,0.119-0.079c0.397,0,2.318,0.588,2.318,1.645
		C63.216,10.259,62.997,10.532,62.778,10.532z"/>
	<path fill="#231815" d="M75.318,1.569c0,0,0.137,2.719,1.634,5.189c0.198,0.302,1.477,2.379,3.213,2.834
		c0.044,0.008,0.116,0.031,0.116,0.079c0,0.055-0.027,0.055-0.39,0.137c-0.396,0.086-0.67,0.257-0.786,0.335
		c-0.212,0.157-0.246,0.195-0.284,0.195c-0.044,0-1.479-0.9-2.573-3.299c-0.206-0.452-0.93-2.005-1.087-4.383
		c-0.021-0.125-0.021-0.137-0.062-0.137c-0.068,0-0.068,0.044-0.116,0.452c-0.027,0.367-0.328,3.004-1.449,4.853
		c-1.203,2.015-3.186,2.693-3.288,2.693c-0.033,0-0.068-0.011-0.068-0.055c0-0.035,0.055-0.079,0.146-0.137
		c0.653-0.438,1.921-1.448,2.684-2.912C74.3,4.956,74.3,1.715,74.3,1.592c0-0.329,0-0.452-0.048-0.69
		c-0.014-0.036-0.041-0.193-0.041-0.23c0-0.055,0.055-0.09,0.089-0.09c0.068,0,0.554,0.158,0.656,0.185
		c0.546,0.145,0.762,0.215,0.762,0.418c0,0.12-0.085,0.158-0.188,0.178c-0.082,0.014-0.144,0.021-0.182,0.071
		C75.332,1.463,75.318,1.5,75.318,1.569z"/>
	<path fill="#231815" d="M87.415,2.93c0.345,0,0.345-0.137,0.345-0.705c0-0.784-0.041-1.123-0.068-1.323
		c-0.005-0.057-0.089-0.309-0.089-0.364c0-0.058,0.048-0.083,0.13-0.083c0.075,0,1.224,0.117,1.224,0.397
		c0,0.072-0.246,0.288-0.273,0.343c-0.086,0.167-0.103,1.067-0.103,1.303c0,0.294,0.011,0.431,0.362,0.431h1.463
		c0.513,0,0.574,0,0.718-0.195c0.342-0.465,0.369-0.51,0.472-0.51c0.13,0,1.032,0.762,1.032,0.862c0,0.144-0.26,0.144-0.602,0.144
		h-3.104c-0.113,0-0.271,0-0.331,0.195c-0.024,0.093-0.024,1.862-0.024,2.185c0,0.351,0.024,0.488,0.376,0.488h1.114
		c0.533,0,0.588,0,0.726-0.194c0.354-0.46,0.382-0.509,0.488-0.509c0.126,0,1.028,0.761,1.028,0.86c0,0.15-0.26,0.15-0.604,0.15
		h-2.738c-0.335,0-0.365,0.114-0.365,0.384c0,0.342,0.006,2.777,0.017,2.833c0.048,0.167,0.191,0.191,0.365,0.191h2.074
		c0.521,0,0.575,0,0.719-0.191c0.349-0.462,0.376-0.521,0.479-0.521c0.123,0,1.032,0.758,1.032,0.862
		c0,0.144-0.26,0.144-0.602,0.144h-7.513c-1.002,0-1.325,0.023-1.432,0.034c-0.045,0-0.202,0.024-0.243,0.024
		c-0.034,0-0.062-0.024-0.089-0.065l-0.232-0.264c-0.041-0.056-0.041-0.056-0.041-0.08c0-0.022,0.013-0.022,0.041-0.022
		c0.075,0,0.417,0.034,0.506,0.034c0.547,0.021,1.017,0.044,1.552,0.044h2.153c0.202,0,0.369,0,0.369-0.406v-2.73
		c0-0.135-0.06-0.272-0.325-0.272h-1.322c-0.991,0-1.319,0.024-1.422,0.024c-0.041,0.01-0.205,0.034-0.246,0.034
		s-0.059-0.034-0.103-0.079L84.107,6.12c-0.032-0.042-0.046-0.056-0.046-0.065c0-0.021,0.014-0.035,0.046-0.035
		c0.077,0,0.423,0.035,0.494,0.044c0.561,0.027,1.019,0.035,1.552,0.035h1.262c0.331,0,0.331-0.167,0.331-0.353V3.525
		c-0.014-0.215-0.119-0.294-0.325-0.294h-1.868c-0.343,0-0.377,0.038-0.652,0.51c-0.627,1.044-1.387,1.977-1.577,1.977
		c-0.041,0-0.055-0.036-0.055-0.07c0-0.024,0.185-0.359,0.287-0.545c1.245-2.3,1.456-3.76,1.49-3.985
		c0.024-0.215,0.048-0.242,0.072-0.242c0.017,0,1.11,0.444,1.11,0.639c0,0.085-0.364,0.339-0.411,0.406
		c-0.067,0.09-0.368,0.757-0.368,0.86c0,0.15,0.144,0.15,0.287,0.15H87.415z"/>
	<path fill="#231815" d="M96.564,4.309c0-0.044,0.044-0.089,0.097-0.089c0.047,0,0.635,0.16,0.753,0.16
		c0.326,0,1.878-0.33,1.905-0.344c0.185-0.136,0.198-1.28,0.198-1.334c0-0.294-0.023-0.633-0.287-0.965
		c-0.166-0.202-0.185-0.222-0.185-0.256c0-0.079,0.131-0.095,0.179-0.095c0.751,0,1.202,0.431,1.202,0.725
		c0,0.017-0.431,1.467-0.431,1.682c0,0.067,0.041,0.101,0.123,0.101c0.062,0,0.574-0.058,0.663-0.058
		c0.851,0,1.511,0.41,1.511,1.455c0,0.89-0.321,2.838-0.978,3.634c-0.314,0.373-0.766,0.691-1.148,0.691
		c-0.417,0-0.533-0.397-0.673-0.784c-0.018-0.079-0.147-0.339-0.147-0.373c0-0.036,0.027-0.058,0.055-0.058
		c0.048,0,0.252,0.072,0.287,0.079c0.234,0.058,0.465,0.079,0.574,0.079c0.335,0,0.752-0.157,1.08-1.379
		c0.126-0.452,0.343-1.372,0.343-1.968c0-0.8-0.445-0.853-0.773-0.853c-0.362,0-1.005,0.169-1.094,0.268
		c-0.041,0.058-0.054,0.104-0.165,0.489c-0.45,1.542-1.552,4.325-2.463,4.325c-0.257,0-0.37-0.157-0.37-0.359
		c0-0.236,0.086-0.329,0.763-1.078c0.307-0.335,0.783-0.862,1.388-2.556c0.048-0.116,0.164-0.452,0.164-0.534
		c0-0.034-0.018-0.092-0.075-0.092c-0.26,0-1.306,0.452-1.538,0.452C97.085,5.271,96.564,4.562,96.564,4.309z M104.412,6.708
		c-0.109,0-0.64-0.294-0.759-0.335c-0.089-0.024-0.363-0.038-0.363-0.079c0-0.067,0.371-0.26,0.438-0.318
		c0.413-0.314,0.467-0.352,0.467-0.658c0-0.191-0.084-0.929-0.918-1.302c-0.093-0.044-0.267-0.124-0.267-0.168
		c0-0.068,0.041-0.068,0.068-0.068c1.449,0,1.975,1.43,1.982,2.005C105.062,5.917,104.896,6.708,104.412,6.708z M104.942,2.916
		c0,0.192-0.141,0.444-0.325,0.444c-0.157,0-0.258-0.071-0.602-0.489c-0.232-0.274-0.349-0.353-0.807-0.667
		c-0.055-0.038-0.171-0.126-0.171-0.175c0-0.031,0.088-0.099,0.194-0.099C104.678,1.931,104.942,2.779,104.942,2.916z
		 M105.847,1.965c0,0.136-0.095,0.328-0.286,0.328c-0.242,0-0.369-0.146-0.602-0.406c-0.176-0.192-0.629-0.465-1.005-0.603
		c-0.116-0.036-0.144-0.079-0.144-0.115c0-0.087,0.273-0.159,0.403-0.159C105.622,1.01,105.847,1.75,105.847,1.965z"/>
	<path fill="#231815" d="M110.858,2.714c0.649,0.382,0.708,0.417,0.708,0.496s-0.322,0.25-0.369,0.308
		c-0.093,0.086-0.421,0.51-0.488,0.588c-0.438,0.509-0.869,0.893-1.457,1.188c-0.068,0.034-0.314,0.15-0.358,0.15
		c-0.054,0-0.018-0.058,0.006-0.072c0.551-0.575,1.169-1.417,1.486-2.221c0.028-0.085,0.117-0.555,0.158-0.575
		S110.688,2.611,110.858,2.714z M116.908,1.852c0.472,0,0.602,0,0.725-0.195c0.286-0.461,0.321-0.51,0.431-0.51
		c0.308,0,1.066,0.784,1.066,0.852c0,0.147-0.241,0.147-0.602,0.147h-2.57c-0.314,0-0.362,0.146-0.362,0.353
		c0,0.281,0.048,1.848,0.048,2.197c0,0.327-0.048,0.657-0.392,0.907c-0.23,0.167-0.456,0.236-0.583,0.236
		c-0.174,0-0.194-0.055-0.29-0.363c-0.032-0.109-0.144-0.317-0.455-0.499c-0.051-0.021-0.249-0.112-0.249-0.137
		c0-0.021,0.055-0.021,0.078-0.021c0.111,0,0.653,0.013,0.758,0c0.326-0.058,0.326-0.137,0.326-0.903c0-0.367,0-1.123-0.009-1.464
		c-0.005-0.306-0.218-0.306-0.354-0.306h-0.8c-0.328,0-0.328,0.059-0.403,0.547c-0.287,1.732-1.005,2.557-1.853,3.076
		c-0.916,0.558-1.839,0.615-1.866,0.615c-0.126,0,0.041-0.08,0.157-0.136c0.991-0.479,1.771-0.853,2.215-1.783
		c0.273-0.551,0.5-1.451,0.5-2.015c0-0.271-0.145-0.306-0.329-0.306h-1.169c-0.841,0-1.175,0.011-1.429,0.035
		c-0.048,0-0.205,0.024-0.234,0.024c-0.048,0-0.066-0.038-0.106-0.071l-0.22-0.261c-0.027-0.032-0.044-0.058-0.044-0.079
		c0-0.01,0.006-0.021,0.044-0.021c0.068,0,0.417,0.034,0.489,0.034c0.642,0.033,1.261,0.044,1.553,0.044h2.086
		c0.35,0,0.391-0.091,0.391-0.568c0-0.157-0.014-0.359-0.073-0.53c-0.009-0.024-0.084-0.202-0.084-0.229
		c0-0.045,0.062-0.045,0.089-0.045c0.055,0,0.861,0.137,1.032,0.157c0.055,0.014,0.198,0.034,0.198,0.15
		c0,0.065-0.008,0.079-0.157,0.194c-0.082,0.066-0.082,0.258-0.082,0.439c0,0.353,0.055,0.431,0.338,0.431H116.908z M115.093,6.493
		c0.243,0,0.305-0.008,0.37-0.063c0.078-0.069,0.447-0.534,0.577-0.534c0.062,0,0.927,0.476,0.927,0.712
		c0,0.126-0.147,0.182-0.236,0.205c-0.251,0.056-0.273,0.056-0.403,0.226c-0.574,0.736-0.911,1.064-1.101,1.245
		c-0.188,0.185-0.273,0.264-0.273,0.329c0,0.195,1.217,0.647,3.001,0.647c0.183,0,1.189-0.079,1.258-0.058
		c-0.027,0.058-0.111,0.183-0.157,0.207c-0.212,0.191-0.472,0.564-0.526,0.734c-0.062,0.181-0.121,0.283-0.232,0.283
		c-0.471,0-2.324-0.35-3.589-1.146c-0.256-0.144-0.287-0.157-0.354-0.157c-0.076,0-0.145,0.047-0.336,0.171
		c-1.565,1.076-4.033,1.291-4.748,1.291c-0.03,0-0.133,0-0.133-0.045c0-0.008,0.048-0.058,0.128-0.065
		c0.733-0.137,1.479-0.366,1.928-0.502c1.814-0.588,2.552-1.243,2.552-1.395c0-0.08-0.068-0.159-0.13-0.211
		c-0.185-0.206-0.472-0.565-0.772-1.092c-0.04-0.065-0.089-0.12-0.157-0.12c-0.075,0-0.582,0.438-0.693,0.517
		c-1.146,0.797-2.451,0.955-2.581,0.955c-0.014,0-0.055,0-0.055-0.049c0-0.03,0.449-0.188,0.526-0.225
		c1.066-0.472,2.071-1.235,2.632-2.378c0.041-0.092,0.212-0.579,0.273-0.579c0.027,0,0.068,0.027,0.438,0.192
		c0.232,0.102,0.567,0.264,0.567,0.373c0,0.102-0.085,0.151-0.191,0.216c-0.041,0.021-0.217,0.128-0.217,0.229
		c0,0.087,0.106,0.087,0.176,0.087H115.093z M113.347,6.803c-0.431,0-0.452,0.079-0.452,0.158c0,0.215,0.964,1.256,1.252,1.256
		c0.246,0,1.08-1.119,1.08-1.276c0-0.137-0.128-0.137-0.192-0.137H113.347z M116.374,2.872c0.814,0,2.312,0.961,2.312,1.777
		c0,0.397-0.232,0.659-0.444,0.659c-0.205,0-0.232-0.071-0.533-0.738c-0.232-0.486-0.853-1.325-1.328-1.599
		c-0.039-0.01-0.094-0.041-0.08-0.062C116.3,2.881,116.341,2.872,116.374,2.872z"/>
	<path fill="#231815" d="M125.706,3.323c0.289,0.182,0.289,0.361,0.289,0.44c0,0.193-0.063,0.351-0.158,0.545
		c-0.035,0.07-0.076,0.158-0.076,0.216c0,0.038,0.017,0.058,0.041,0.058c0.062,0,0.273-0.148,0.335-0.174
		c1.114-0.562,1.729-0.654,2.283-0.654c1.764,0,2.563,1.181,2.563,2.378c0,2.717-3.616,3.603-3.878,3.603
		c-0.025,0-0.047,0-0.047-0.024c0-0.033,0.712-0.431,0.842-0.518c0.561-0.385,2.203-1.633,2.203-3.318
		c0-1.293-0.938-1.762-1.711-1.762c-1.237,0-2.529,0.685-2.96,1.174c-0.144,0.164-0.219,0.359-0.219,1.126
		c0,0.253,0.014,1.69,0.062,2.292c0.014,0.087,0.055,0.464,0.055,0.534c0,0.36-0.328,0.654-0.499,0.654
		c-0.321,0-0.349-0.405-0.393-1.101c-0.024-0.238-0.1-1.311-0.37-1.311c-0.053,0-0.201,0.283-0.29,0.464
		c-0.171,0.329-0.41,0.794-0.813,0.794c-0.13,0-0.273-0.093-0.273-0.321c0-0.188,0.055-0.294,0.342-0.768
		c0.116-0.202,0.561-0.985,0.561-1.102c0-0.202-0.232-0.619-0.437-0.869c-0.37-0.452-0.397-0.5-0.397-0.705
		c0-0.383,0.301-0.431,0.774-0.496c0.189-0.034,0.258-0.045,1.016-0.746c0.053-0.058,0.281-0.238,0.295-0.274
		c0.055-0.113,0.096-0.609,0.096-0.961c0-1.009-0.253-1.382-0.449-1.597c-0.193-0.23-0.211-0.251-0.211-0.294
		c0-0.094,0.27-0.152,0.375-0.152c0.319,0,1.078,0.469,1.078,0.842c0,0.166-0.144,0.883-0.166,1.027
		c-0.019,0.183-0.06,0.534-0.06,0.663C125.508,3.202,125.515,3.21,125.706,3.323z M124.298,4.672
		c-0.103,0.159-0.229,0.374-0.492,0.399c-0.355,0.021-0.472,0.03-0.472,0.178c0,0.157,0.411,0.883,0.533,0.883
		c0.068,0,0.103-0.055,0.226-0.236c0.704-1.033,0.704-1.057,0.704-1.462c0-0.088,0-0.146-0.041-0.16
		C124.688,4.264,124.491,4.347,124.298,4.672z M124.271,7.029c0,0.147,0.221,0.442,0.326,0.442c0.132,0,0.132-0.609,0.132-1.136
		c0-0.041-0.02-0.065-0.062-0.065C124.585,6.27,124.271,6.894,124.271,7.029z"/>
	<path fill="#231815" d="M140.144,7.255c0-0.927-0.786-1.724-1.916-1.724c-1.499,0-2.457,1.554-2.664,1.906
		c-0.222,0.387-0.333,0.602-0.643,0.602c-0.272,0-0.325-0.229-0.325-0.315c0-0.287,0.093-0.536,0.899-1.474
		c0.731-0.862,0.848-1.012,2.557-3.412c0.369-0.534,0.526-0.77,0.526-0.895c0-0.079-0.081-0.159-0.212-0.159
		c-0.417,0-1.094,0.564-1.278,0.723c-0.458,0.374-0.615,0.409-0.807,0.409c-0.526,0-0.887-0.725-0.887-0.782
		c0-0.033,0.039-0.033,0.271-0.033c0.602,0,1.438-0.27,1.755-0.407c0.7-0.311,0.788-0.339,1.027-0.339
		c0.465,0,1.196,0.281,1.196,0.779c0,0.327-0.26,0.509-0.807,0.882c-0.82,0.582-1.805,2.135-1.805,2.324
		c0,0.033,0.027,0.083,0.065,0.083c0.059-0.027,0.218-0.083,0.276-0.106c0.371-0.136,0.688-0.18,1.005-0.18
		c1.445,0,2.543,1.078,2.543,2.354c0,1.438-1.395,2.45-2.83,2.45c-1.121,0-1.921-0.602-1.921-1.17c0-0.403,0.472-0.916,1.114-0.916
		c0.533,0,0.978,0.32,1.292,0.723c0.157,0.206,0.23,0.309,0.39,0.309C139.35,8.887,140.144,8.196,140.144,7.255z M137.231,8.275
		c-0.273,0-0.472,0.215-0.472,0.397c0,0.294,0.485,0.53,0.971,0.53c0.115,0,0.191-0.079,0.191-0.202
		C137.922,8.73,137.648,8.275,137.231,8.275z"/>
	<path fill="#231815" d="M146.24,9.273c0,0.634-0.512,1.259-1.271,1.259c-0.758,0-1.245-0.639-1.245-1.272
		c0-0.862,0.746-1.243,1.259-1.243C145.715,8.017,146.24,8.627,146.24,9.273z M144.042,9.26c0,0.521,0.422,0.951,0.955,0.951
		c0.484,0,0.937-0.383,0.937-0.931c0-0.438-0.34-0.948-0.964-0.948C144.371,8.333,144.042,8.82,144.042,9.26z"/>
</g>
</svg>
